<svg id="Capa_1" enable-background="new 0 0 512 512" height="512" viewBox="0 0 512 512" width="512" xmlns="http://www.w3.org/2000/svg"><g><path d="m0 497c0 8.284 6.716 15 15 15h360c8.284 0 15-6.716 15-15v-452c0-8.284-6.716-15-15-15h-45v-15c0-8.284-6.716-15-15-15s-15 6.716-15 15v15h-30v-15c0-8.284-6.716-15-15-15s-15 6.716-15 15v15h-30v-15c0-8.284-6.716-15-15-15s-15 6.716-15 15v15h-30v-15c0-8.284-6.716-15-15-15s-15 6.716-15 15v15h-30v-15c0-8.284-6.716-15-15-15s-15 6.716-15 15v15h-45c-8.284 0-15 6.716-15 15zm30-437h30v15c0 8.284 6.716 15 15 15s15-6.716 15-15v-15h30v15c0 8.284 6.716 15 15 15s15-6.716 15-15v-15h30v15c0 8.284 6.716 15 15 15s15-6.716 15-15v-15h30v15c0 8.284 6.716 15 15 15s15-6.716 15-15v-15h30v15c0 8.284 6.716 15 15 15s15-6.716 15-15v-15h30v422h-330z"/><path d="m89.552 260.638 17.507-70.027 13.71 41.133c4.225 12.672 21.692 13.874 27.647 1.964l20.693-41.385 15.284 15.284c5.056 5.057 12.978 5.84 18.927 1.875l90-60c6.894-4.596 8.756-13.909 4.16-20.801-4.595-6.893-13.909-8.755-20.801-4.161l-79.769 53.179-21.305-21.305c-7.234-7.233-19.447-5.255-24.023 3.898l-13.805 27.61-18.548-55.646c-4.757-14.267-25.169-13.345-28.783 1.105l-30 120c-4.812 19.257 24.292 26.53 29.106 7.277z"/><path d="m298.023 189.558c-4.11-7.194-13.274-9.693-20.466-5.582l-210 120c-7.193 4.11-9.692 13.273-5.582 20.465 4.088 7.156 13.24 9.712 20.465 5.582l210-120c7.195-4.109 9.694-13.273 5.583-20.465z"/><path d="m277.5 302c-14.566 0-27.422 5.634-37.5 16.362-10.078-10.728-22.934-16.362-37.5-16.362-29.439 0-52.5 23.094-52.5 52.576 0 36.401 35.039 57.664 80.629 94.137 5.478 4.383 13.263 4.383 18.741 0 45.441-36.354 80.63-57.719 80.63-94.137 0-29.482-23.061-52.576-52.5-52.576zm-37.5 115.864c-36.218-28.451-60-45.096-60-63.289 0-11.219 7.729-22.576 22.5-22.576 16.315 0 22.402 17.063 23.146 19.359 4.126 14.472 24.579 14.48 28.707 0 .745-2.295 6.832-19.358 23.147-19.358 14.771 0 22.5 11.357 22.5 22.576 0 18.165-23.48 34.599-60 63.288z"/><path d="m512 377v-270c0-8.284-6.716-15-15-15h-60c-8.284 0-15 6.716-15 15v270c0 1.573.317 3.391.77 4.744l30 90c4.541 13.622 23.91 13.651 28.461 0l30-90c.462-1.402.769-3.176.769-4.744zm-60-15v-180h30v180zm30-240v30h-30v-30zm-24.189 270h18.377l-9.188 27.566z"/></g></svg>