<svg id="_x33_0" enable-background="new 0 0 64 64" height="512" viewBox="0 0 64 64" width="512" xmlns="http://www.w3.org/2000/svg"><g><path d="m61 57h-18v-16c1.103 0 2-.897 2-2v-2c0-1.103-.897-2-2-2h-2v-9c0-1.654-1.346-3-3-3h-1.184c-.414-1.161-1.514-2-2.816-2h-2c-1.654 0-3 1.346-3 3s1.346 3 3 3h2c1.302 0 2.402-.839 2.816-2h1.184c.552 0 1 .449 1 1v9h-18c-1.103 0-2 .897-2 2v2c0 1.103.897 2 2 2v16h-18c-1.103 0-2 .897-2 2v2c0 1.103.897 2 2 2h58c1.103 0 2-.897 2-2v-2c0-1.103-.897-2-2-2zm-27-32h-2c-.552 0-1-.449-1-1s.448-1 1-1h2c.552 0 1 .449 1 1s-.448 1-1 1zm-13 12h22l.001 2h-22.001zm2 4h18v16h-2v-12h-2v12h-2v-12h-2v12h-2v-12h-2v12h-2v-12h-2v12h-2zm-20 20v-2h58l.001 2z"/><path d="m1 1v54h1c1.328 0 2.034-.808 2.501-1.342.435-.497.607-.658.995-.658s.562.161.996.658c.468.534 1.174 1.342 2.502 1.342 1.329 0 2.035-.807 2.503-1.341.437-.498.61-.659 1-.659.389 0 .563.161.999.659.468.534 1.174 1.341 2.504 1.341h1v-1.566c0-6.263-1.728-12.383-5-17.719v-3.312c1.509-1.602 8.226-9.229 11.36-20.717 2.3 2.054 5.322 3.314 8.64 3.314s6.34-1.26 8.64-3.313c3.134 11.487 9.851 19.114 11.36 20.716v3.312c-3.272 5.335-5 11.456-5 17.719v1.566h1c1.33 0 2.036-.807 2.504-1.341.436-.498.61-.659.999-.659.39 0 .563.161 1 .659.468.534 1.174 1.341 2.503 1.341 1.328 0 2.034-.808 2.502-1.342.434-.497.608-.658.996-.658s.561.161.995.658c.467.534 1.173 1.342 2.501 1.342h1v-54zm41.328 8.864c.414-.542.796-1.11 1.121-1.714 1.684 1.8 4.025 2.85 6.551 2.85 4.625 0 8.442-3.507 8.941-8h2.008c-.507 5.598-5.221 10-10.949 10-2.877 0-5.625-1.14-7.672-3.136zm2.621-6.864h11.971c-.488 3.387-3.401 6-6.92 6-2.271 0-4.351-1.088-5.668-2.914.327-.983.535-2.016.617-3.086zm-12.949 4c2.414 0 4.434-1.721 4.899-4h2.021c-.488 3.387-3.401 6-6.92 6s-6.432-2.613-6.92-6h2.021c.465 2.279 2.485 4 4.899 4zm-2.816-4h5.631c-.413 1.161-1.513 2-2.815 2s-2.402-.839-2.816-2zm-15.184 10c-5.728 0-10.442-4.402-10.949-10h2.008c.499 4.493 4.316 8 8.941 8 2.526 0 4.867-1.05 6.551-2.851.326.604.708 1.172 1.121 1.714-2.047 1.997-4.795 3.137-7.672 3.137zm5.668-6.914c-1.317 1.826-3.397 2.914-5.668 2.914-3.519 0-6.432-2.613-6.92-6h11.971c.082 1.07.29 2.103.617 3.086zm-9.668 26.914v2h-7v-2zm4.98 19.318c-.467-.533-1.172-1.318-2.483-1.318-1.33 0-2.036.807-2.504 1.341-.436.498-.61.659-.999.659-.388 0-.562-.161-.996-.658-.468-.534-1.174-1.342-2.502-1.342-1.323 0-2.029.802-2.496 1.336v-15.336h7.425c2.795 4.647 4.367 9.906 4.555 15.318zm-4.207-21.541c2.361-5.004 3.182-11.354 3.22-11.653l-1.984-.248c-.011.075-.954 7.343-3.597 12.124h-1.412v-14h-2v14h-2v-22.104c2.303 3.66 6.367 6.104 11 6.104 2.46 0 4.837-.711 6.883-1.99-3.023 9.444-8.481 15.968-10.11 17.767zm21.227-17.777c-5.728 0-10.442-4.402-10.949-10h2.008c.499 4.493 4.316 8 8.941 8s8.442-3.507 8.941-8h2.008c-.507 5.598-5.221 10-10.949 10zm26.504 38c-1.328 0-2.034.808-2.502 1.342-.435.497-.608.658-.996.658-.389 0-.563-.161-.999-.659-.468-.534-1.174-1.341-2.504-1.341-1.311 0-2.016.785-2.483 1.318.189-5.412 1.76-10.672 4.555-15.318h7.425v15.336c-.467-.534-1.173-1.336-2.496-1.336zm-4.504-18h7v2h-7zm7-2h-2v-14h-2v14h-1.412c-2.643-4.781-3.586-12.049-3.596-12.124l-1.984.248c.037.299.859 6.649 3.22 11.653-1.629-1.799-7.087-8.323-10.11-17.767 2.045 1.279 4.422 1.99 6.882 1.99 4.633 0 8.697-2.444 11-6.104z"/></g></svg>