<?xml version="1.0" encoding="iso-8859-1"?>
<!-- Generator: Adobe Illustrator 19.0.0, SVG Export Plug-In . SVG Version: 6.00 Build 0)  -->
<svg version="1.1" id="Capa_1" xmlns="http://www.w3.org/2000/svg" xmlns:xlink="http://www.w3.org/1999/xlink" x="0px" y="0px"
	 viewBox="0 0 512.002 512.002" style="enable-background:new 0 0 512.002 512.002;" xml:space="preserve">
<g>
	<g>
		<path d="M250.321,188.959h-21.567c-4.146,0-7.507,3.361-7.507,7.507s3.361,7.507,7.507,7.507h21.567
			c4.146,0,7.507-3.361,7.507-7.507S254.467,188.959,250.321,188.959z"/>
	</g>
</g>
<g>
	<g>
		<path d="M335.141,172.862h-14.368c-4.146,0-7.507,3.361-7.507,7.507s3.361,7.507,7.507,7.507h14.368
			c4.146,0,7.507-3.361,7.507-7.507S339.287,172.862,335.141,172.862z"/>
	</g>
</g>
<g>
	<g>
		<path d="M188.137,161.659h-14.368c-4.146,0-7.507,3.361-7.507,7.507s3.361,7.507,7.507,7.507h14.368
			c4.146,0,7.507-3.361,7.507-7.507S192.283,161.659,188.137,161.659z"/>
	</g>
</g>
<g>
	<g>
		<path d="M311.076,300.795h-7.694c-4.146,0-7.507,3.361-7.507,7.507c0,4.146,3.361,7.507,7.507,7.507h7.694
			c4.146,0,7.507-3.361,7.507-7.507C318.583,304.157,315.222,300.795,311.076,300.795z"/>
	</g>
</g>
<g>
	<g>
		<path d="M327.957,361.53h-20.086c-4.146,0-7.507,3.361-7.507,7.507s3.361,7.507,7.507,7.507h20.086
			c4.146,0,7.507-3.361,7.507-7.507S332.103,361.53,327.957,361.53z"/>
	</g>
</g>
<g>
	<g>
		<path d="M193.532,296.22h-7.693c-4.146,0-7.507,3.361-7.507,7.507s3.361,7.507,7.507,7.507h7.693c4.146,0,7.507-3.361,7.507-7.507
			S197.678,296.22,193.532,296.22z"/>
	</g>
</g>
<g>
	<g>
		<path d="M255.853,292.788c-15.367,0-27.868,12.501-27.868,27.868v21.68c0,6.9,5.613,12.512,12.512,12.512h30.712
			c6.9,0,12.512-5.612,12.512-12.512v-21.68C283.722,305.289,271.22,292.788,255.853,292.788z M268.707,339.834H243v-19.178
			c0-7.088,5.766-12.854,12.854-12.854c7.088,0,12.854,5.766,12.854,12.854V339.834z"/>
	</g>
</g>
<g>
	<g>
		<path d="M499.068,400.568h-24.222c-6.9,0-12.512,5.613-12.512,12.512v6.232h-33.7v-6.232c0-6.9-5.613-12.512-12.512-12.512
			h-23.976c-6.9,0-12.512,5.613-12.512,12.512v6.232h-17.838v-54.287c0-4.146-3.361-7.507-7.507-7.507
			c-4.146,0-7.507,3.361-7.507,7.507v131.96h-30.437v-59.104c0-33.356-27.137-60.492-60.492-60.492
			c-15.87,0-30.866,6.1-42.226,17.177c-11.339,11.056-17.819,25.851-18.243,41.662c-0.112,4.145,3.158,7.594,7.302,7.707
			c4.138,0.107,7.594-3.158,7.707-7.302c0.319-11.882,5.191-23.003,13.715-31.315c8.54-8.327,19.814-12.913,31.745-12.913
			c25.077,0,45.478,20.401,45.478,45.478v59.104h-90.954v-14.512c0-4.146-3.361-7.507-7.507-7.507s-7.507,3.361-7.507,7.507v14.511
			h-30.437V356.872h8.845c4.146,0,7.507-3.361,7.507-7.507s-3.361-7.507-7.507-7.507h-8.845v-68.824h181.859v45.78
			c0,4.146,3.361,7.507,7.507,7.507c4.146,0,7.507-3.361,7.507-7.507v-50.367c0.016-0.039,0.039-0.073,0.055-0.112
			c1.677-4.151,3.348-8.303,5.023-12.455c2.658-6.59,5.315-13.18,7.973-19.77c0.982-2.435,1.964-4.87,2.946-7.305
			c0.275-0.683,0.51-1.404,0.833-2.066c1.079-2.215,0.862-3.25,0.861-5.724c0-9.959,0-19.919,0-29.877c0-13.635,0-27.271,0-40.907
			c0-6.877,0-13.754,0-20.63c0-6.9-5.612-12.512-12.512-12.512h-29.767c-6.9,0-12.512,5.613-12.512,12.512v6.648h-13.644V92.623
			c0-6.9-5.613-12.512-12.512-12.512h-35.176V54.684h39.064c3.769,0,7.185-2.229,8.703-5.678c1.518-3.449,0.856-7.473-1.69-10.253
			l-10.447-11.411l10.447-11.411c2.544-2.78,3.208-6.804,1.69-10.253C309.613,2.229,306.197,0,302.429,0h-46.576
			c-4.146,0-7.507,3.361-7.507,7.507v39.669c0,0.023,0.003,0.045,0.003,0.068v32.868h-35.183c-6.9,0-12.512,5.613-12.512,12.512
			v43.623H187.01V129.6c0-6.9-5.612-12.512-12.512-12.512H144.73c-6.9,0-12.512,5.613-12.512,12.512c0,6.629,0,13.257,0,19.886
			c0,13.326,0,26.652,0,39.978c0,10.207,0,20.414,0,30.621c0,1.839-0.161,4.033,0.513,5.773c0.012,0.032,0.02,0.065,0.032,0.098
			l0.035,0.086c0.006,0.014,0.011,0.028,0.017,0.041l17.039,42.253c0.016,0.039,0.039,0.073,0.055,0.112v150.867h-17.542v-6.232
			c0-6.9-5.612-12.512-12.512-12.512H95.879c-6.9,0-12.512,5.612-12.512,12.512v6.232H49.668v-6.232
			c0-6.9-5.613-12.512-12.512-12.512H12.934c-6.9,0-12.512,5.612-12.512,12.512v91.412c0,4.146,3.361,7.507,7.507,7.507h194.94
			h105.969h195.235c4.146,0,7.507-3.361,7.507-7.507v-91.412C511.581,406.181,505.967,400.568,499.068,400.568z M263.364,15.015
			h26.56l-5.406,5.906c-3.35,3.66-3.351,9.18,0,12.843l5.406,5.906h-26.56V15.015z M215.669,95.126h80.368v41.12h-12.932v-6.648
			c0-6.9-5.613-12.512-12.512-12.512h-29.48c-6.9,0-12.512,5.612-12.512,12.512v6.648h-12.932V95.126z M147.234,215.639v-83.537
			h24.762v6.648c0,6.9,5.612,12.512,12.512,12.512h46.596c6.9,0,12.512-5.612,12.512-12.512v-6.648h24.475v6.648
			c0,6.9,5.612,12.512,12.512,12.512h46.596c6.9,0,12.512-5.612,12.512-12.512v-6.648h24.762v83.537H147.234z M149.909,496.985
			H15.436v-31.137h14.06c4.146,0,7.507-3.361,7.507-7.507c0-4.146-3.361-7.507-7.507-7.507h-14.06v-35.251h19.217v6.232
			c0,6.9,5.612,12.512,12.512,12.512H85.87c6.9,0,12.512-5.612,12.512-12.512v-6.232h18.97v6.232c0,6.9,5.612,12.512,12.512,12.512
			h20.045V496.985z M150.848,230.654h210.01l-10.945,27.14H161.793L150.848,230.654z M496.566,496.985H361.797v-62.658h20.34
			c6.9,0,12.512-5.613,12.512-12.512v-6.232h18.97v6.232c0,6.9,5.612,12.512,12.512,12.512h38.705c6.9,0,12.512-5.613,12.512-12.512
			v-6.232h19.217V496.985z"/>
	</g>
</g>
<g>
	<g>
		<path d="M480.384,470.963h-14.368c-4.146,0-7.507,3.361-7.507,7.507s3.361,7.507,7.507,7.507h14.368
			c4.146,0,7.507-3.361,7.507-7.507S484.53,470.963,480.384,470.963z"/>
	</g>
</g>
<g>
	<g>
		<path d="M137.77,443.936h-20.086c-4.146,0-7.507,3.361-7.507,7.507s3.361,7.507,7.507,7.507h20.086
			c4.146,0,7.507-3.361,7.507-7.507S141.916,443.936,137.77,443.936z"/>
	</g>
</g>
<g>
	<g>
		<path d="M424.22,448.776h-20.086c-4.146,0-7.507,3.361-7.507,7.507c0,4.146,3.361,7.507,7.507,7.507h20.086
			c4.146,0,7.507-3.361,7.507-7.507C431.727,452.137,428.367,448.776,424.22,448.776z"/>
	</g>
</g>
<g>
	<g>
		<path d="M86.057,465.958h-7.694c-4.146,0-7.507,3.361-7.507,7.507c0,4.146,3.361,7.507,7.507,7.507h7.694
			c4.146,0,7.507-3.361,7.507-7.507C93.564,469.319,90.204,465.958,86.057,465.958z"/>
	</g>
</g>
<g>
</g>
<g>
</g>
<g>
</g>
<g>
</g>
<g>
</g>
<g>
</g>
<g>
</g>
<g>
</g>
<g>
</g>
<g>
</g>
<g>
</g>
<g>
</g>
<g>
</g>
<g>
</g>
<g>
</g>
</svg>
