<svg id="Capa_1" enable-background="new 0 0 506.798 506.798" height="512" viewBox="0 0 506.798 506.798" width="512" xmlns="http://www.w3.org/2000/svg">
    <g>
        <path fill="#0000d4" d="m466.856 308.391h-8.499v-133.465c11.496-6.657 19.253-19.085 19.253-33.298v-102.805c0-21.407-17.416-38.823-38.822-38.823h-370.778c-21.407 0-38.823 17.416-38.823 38.823v102.805c0 14.214 7.757 26.642 19.253 33.299v133.465h-8.499c-10.782 0-19.554 8.772-19.554 19.554v12.459c0 10.782 8.772 19.554 19.554 19.554h.481v119.389c0 15.136 12.314 27.451 27.451 27.451h371.05c15.137 0 27.451-12.315 27.451-27.451v-119.39h.481c10.782 0 19.554-8.772 19.554-19.554v-12.459c.001-10.782-8.771-19.554-19.553-19.554zm-23.499 0h-17.449v-130.655c4.131 1.52 8.592 2.351 13.243 2.351 1.422 0 2.824-.083 4.206-.235zm-4.206-143.304c-12.934 0-23.458-10.523-23.458-23.459v-5.258h46.917v5.258c0 12.935-10.523 23.459-23.459 23.459zm-333.046-28.717h46.829l-.01 5.184c-.001.556.017 1.107.039 1.658-.818 12.199-10.997 21.875-23.4 21.875-12.935 0-23.459-10.523-23.459-23.459v-5.258zm61.918 5.258v-5.258h46.829l-.01 5.302c-.025 12.936-10.568 23.439-23.504 23.414-12.392-.024-22.546-9.704-23.355-21.89.021-.521.04-1.042.04-1.568zm61.917-5.258h46.918v5.258c0 12.936-10.523 23.459-23.459 23.459s-23.459-10.523-23.459-23.459zm61.918 0h46.917v5.258c0 12.936-10.523 23.459-23.459 23.459-12.935 0-23.458-10.523-23.458-23.459zm61.917 0h46.918v5.258c0 12.936-10.523 23.459-23.459 23.459s-23.459-10.523-23.459-23.459zm108.835-97.547v82.547h-46.917v-106.37h23.095c13.136 0 23.822 10.687 23.822 23.823zm-61.917 82.547h-46.918v-106.37h46.918zm-61.918 0h-46.917v-106.37h46.917zm-61.917 0h-46.918l.143-106.37h46.775zm-61.918-106.325-.06 106.325h-46.858l.143-106.414zm-61.977 106.325h-46.858v-106.37h46.918zm-84.953-106.37h23.095v106.37h-46.918v-82.547c0-13.136 10.687-23.823 23.823-23.823zm-23.823 121.37h46.918v5.258c0 12.936-10.523 23.459-23.459 23.459s-23.459-10.523-23.459-23.459zm19.254 43.482c1.382.151 2.784.234 4.206.234 4.652 0 9.112-.831 13.243-2.351v130.655h-17.449zm387.934 299.495c0 6.865-5.586 12.451-12.451 12.451h-371.05c-6.865 0-12.451-5.586-12.451-12.451v-119.389h395.952zm20.035-138.943c0 2.511-2.043 4.554-4.554 4.554h-7.981-410.952-7.981c-2.511 0-4.554-2.043-4.554-4.554v-12.459c0-2.511 2.043-4.554 4.554-4.554h147.587c4.142 0 7.5-3.358 7.5-7.5s-3.358-7.5-7.5-7.5h-91.64v-140.694c.964-1.043 1.871-2.139 2.716-3.284 7.009 9.499 18.275 15.674 30.959 15.674 12.653 0 23.896-6.145 30.909-15.604 6.998 9.44 18.21 15.579 30.837 15.604 12.741.024 24.061-6.186 31.081-15.744 7.006 9.538 18.294 15.744 31.009 15.744 12.684 0 23.949-6.175 30.959-15.674 7.009 9.499 18.274 15.674 30.958 15.674s23.949-6.176 30.959-15.674c7.009 9.499 18.275 15.674 30.959 15.674s23.949-6.175 30.959-15.674c.845 1.145 1.752 2.24 2.715 3.283v140.695h-193.38c-4.142 0-7.5 3.358-7.5 7.5s3.358 7.5 7.5 7.5h249.328c2.511 0 4.554 2.043 4.554 4.554v12.459z"/>
        <path fill="#0000d4" d="m147.761 460.129h57.521c4.142 0 7.5-3.358 7.5-7.5s-3.358-7.5-7.5-7.5h-57.521c-.417 0-.757-.34-.757-.757v-39.24c0-.418.339-.757.757-.757h217.909c.418 0 .758.34.758.757v39.24c0 .418-.34.757-.758.757h-130.387c-4.142 0-7.5 3.358-7.5 7.5s3.358 7.5 7.5 7.5h130.387c8.688 0 15.758-7.069 15.758-15.757v-39.24c0-8.689-7.069-15.757-15.758-15.757h-217.909c-8.689 0-15.757 7.069-15.757 15.757v39.24c0 8.689 7.068 15.757 15.757 15.757z"/>
    </g>
</svg>