<?xml version="1.0" encoding="iso-8859-1"?>
<!-- Generator: Adobe Illustrator 19.0.0, SVG Export Plug-In . SVG Version: 6.00 Build 0)  -->
<svg version="1.1" id="Capa_1" xmlns="http://www.w3.org/2000/svg" xmlns:xlink="http://www.w3.org/1999/xlink" x="0px" y="0px"
	 viewBox="0 0 512 512" style="enable-background:new 0 0 512 512;" xml:space="preserve">
<g>
	<g>
		<g>
			<path fill="#0000d4" d="M443.25,147.533c4.896-3.271,6.229-9.896,2.958-14.792c-3.292-4.938-9.938-6.229-14.792-2.958
				c-11.66,7.774-24.991,12.362-36.865,15.183c-4.457-8.839-8.858-17.174-13.068-24.795c11.672-7.496,24.202-13.513,34.516-13.513
				c5.896,0,10.667-4.771,10.667-10.667c0-5.896-4.771-10.667-10.667-10.667c-14.99,0-31.048,7.457-45.098,16.313
				c-8.699-14.744-15.689-25.476-18.923-30.292c-0.917-55.46-24.479-68.856-27.208-70.231c-4.104-2.021-9.083-1.25-12.313,2
				c-15.688,15.688-25.896,31.313-30.729,39.543h-51.458c-4.833-8.229-15.042-23.855-30.729-39.543
				c-3.229-3.25-8.188-4.021-12.313-2c-2.729,1.375-26.292,14.771-27.208,70.231c-3.234,4.817-10.223,15.547-18.922,30.291
				C127.049,92.779,110.99,85.323,96,85.323c-5.896,0-10.667,4.771-10.667,10.667c0,5.896,4.771,10.667,10.667,10.667
				c10.292,0,22.827,6.026,34.508,13.529c-4.211,7.625-8.615,15.963-13.074,24.807c-11.841-2.816-25.148-7.412-36.85-15.21
				c-4.854-3.25-11.521-1.958-14.792,2.958c-3.271,4.896-1.938,11.521,2.958,14.792c12.564,8.373,26.464,13.67,39.155,17.077
				C85.216,213.319,64,273.959,64,330.662c0,88.731,74.583,164.379,77.771,167.546c1.167,1.167,2.604,2.063,4.167,2.583
				C147.313,501.25,180.229,512,234.667,512c2.833,0,5.542-1.125,7.542-3.125l7.542-7.542h12.5l7.542,7.542
				c2,2,4.708,3.125,7.542,3.125c54.438,0,87.354-10.75,88.729-11.209c1.563-0.521,3-1.417,4.167-2.583
				C373.417,495.041,448,419.394,448,330.662c0-56.703-21.216-117.343-43.905-166.052
				C416.786,161.202,430.686,155.907,443.25,147.533z M426.667,330.667c0,72.625-58.646,138.729-69.729,150.583
				c-7.917,2.229-34.958,8.938-75.208,9.396l-7.521-7.521c-2-2-4.708-3.125-7.542-3.125h-21.333c-2.833,0-5.542,1.125-7.542,3.125
				l-7.521,7.521c-40.25-0.458-67.313-7.167-75.208-9.396c-11.083-11.813-69.729-77.792-69.729-150.583
				c0-54.406,21.77-114.158,44.362-161.66c11.09,1.539,18.884,1.66,19.638,1.66c5.896,0,10.667-4.771,10.667-10.667
				s-4.771-10.667-10.667-10.667c-0.117,0-3.931-0.086-9.625-0.62c2.846-5.526,5.638-10.784,8.369-15.788
				c6.375,5.158,11.773,10.013,15.048,13.283c2.083,2.083,4.813,3.125,7.542,3.125c2.729,0,5.458-1.042,7.542-3.125
				c4.167-4.167,4.167-10.917,0-15.083c-1.798-1.798-9.156-8.961-19.474-17.098c11.818-20.26,20.423-32.887,20.703-33.298
				c1.229-1.771,1.896-3.896,1.896-6.063c0-27.333,5.938-41.688,10.438-48.667c14.938,16.875,22.604,31.938,22.688,32.125
				C216.271,61.708,219.979,64,224,64h64c4.021,0,7.729-2.292,9.542-5.875c0.083-0.188,7.75-15.229,22.646-32.083
				c4.604,7.042,10.479,21.396,10.479,48.625c0,2.167,0.667,4.292,1.896,6.063c0.28,0.411,8.889,13.033,20.712,33.292
				c-10.322,8.139-17.685,15.306-19.483,17.104c-4.167,4.167-4.167,10.917,0,15.083c2.083,2.083,4.813,3.125,7.542,3.125
				c2.729,0,5.458-1.042,7.542-3.125c3.273-3.273,8.673-8.137,15.052-13.302c2.73,5.004,5.525,10.262,8.372,15.788
				c-5.71,0.543-9.536,0.639-9.654,0.639c-5.875,0.021-10.646,4.792-10.646,10.688c0.021,5.875,4.771,10.646,10.667,10.646
				c0.754,0,8.559-0.122,19.656-1.663C404.909,216.488,426.667,276.224,426.667,330.667z"/>
			<path fill="#0000d4" d="M256,170.667c-82.333,0-149.333,67-149.333,149.333s67,149.333,149.333,149.333s149.333-67,149.333-149.333
				S338.333,170.667,256,170.667z M256,448c-70.583,0-128-57.417-128-128s57.417-128,128-128s128,57.417,128,128
				S326.583,448,256,448z"/>
			<path fill="#0000d4" d="M202.667,128c11.771,0,21.333-9.563,21.333-21.333C224,100.771,219.229,96,213.333,96
				c0-5.896-4.771-10.667-10.667-10.667c-11.771,0-21.333,9.563-21.333,21.333C181.333,118.438,190.896,128,202.667,128z"/>
			<path fill="#0000d4" d="M309.333,128c11.771,0,21.333-9.563,21.333-21.333C330.667,100.771,325.896,96,320,96
				c0-5.896-4.771-10.667-10.667-10.667c-11.771,0-21.333,9.563-21.333,21.333C288,118.438,297.563,128,309.333,128z"/>
			<path fill="#0000d4" d="M248.458,146.208c2.083,2.083,4.813,3.125,7.542,3.125s5.458-1.042,7.542-3.125l10.667-10.667
				c3.042-3.042,3.958-7.646,2.313-11.625c-1.646-3.979-5.542-6.583-9.854-6.583h-21.333c-4.313,0-8.208,2.604-9.854,6.583
				c-1.646,3.979-0.729,8.583,2.313,11.625L248.458,146.208z"/>
			<path fill="#0000d4" d="M282.104,246.458l-21.333-10.667c-3-1.5-6.542-1.5-9.542,0l-21.333,10.667c-5.271,2.646-7.396,9.042-4.771,14.313
				c2.646,5.25,9.021,7.417,14.313,4.771L256,257.25l16.563,8.292c1.542,0.771,3.167,1.125,4.771,1.125
				c3.896,0,7.667-2.167,9.542-5.896C289.5,255.5,287.375,249.104,282.104,246.458z"/>
			<path fill="#0000d4" d="M207.438,278.458l-21.333-10.667c-3-1.5-6.542-1.5-9.542,0l-21.333,10.667c-5.271,2.646-7.396,9.042-4.771,14.313
				c2.646,5.25,9.021,7.417,14.313,4.771l16.563-8.292l16.563,8.292c1.542,0.771,3.167,1.125,4.771,1.125
				c3.896,0,7.667-2.167,9.542-5.896C214.833,287.5,212.708,281.104,207.438,278.458z"/>
			<path fill="#0000d4" d="M325.896,267.792l-21.333,10.667c-5.271,2.646-7.396,9.042-4.771,14.313c2.646,5.25,9.042,7.417,14.313,4.771
				l16.563-8.292l16.563,8.292c1.542,0.771,3.167,1.125,4.771,1.125c3.896,0,7.667-2.167,9.542-5.896
				c2.625-5.271,0.5-11.667-4.771-14.313l-21.333-10.667C332.438,266.292,328.896,266.292,325.896,267.792z"/>
		</g>
	</g>
</g>
<g>
</g>
<g>
</g>
<g>
</g>
<g>
</g>
<g>
</g>
<g>
</g>
<g>
</g>
<g>
</g>
<g>
</g>
<g>
</g>
<g>
</g>
<g>
</g>
<g>
</g>
<g>
</g>
<g>
</g>
</svg>
